<svg id="visual" viewBox="0 0 900 600" width="900" height="600" xmlns="http://www.w3.org/2000/svg" xmlns:xlink="http://www.w3.org/1999/xlink" version="1.1"><path d="M0 133L82 127L164 91L245 49L327 67L409 103L491 73L573 91L655 97L736 127L818 61L900 61L900 0L818 0L736 0L655 0L573 0L491 0L409 0L327 0L245 0L164 0L82 0L0 0Z" fill="#038373"></path><path d="M0 403L82 301L164 385L245 313L327 343L409 319L491 283L573 355L655 265L736 313L818 253L900 349L900 59L818 59L736 125L655 95L573 89L491 71L409 101L327 65L245 47L164 89L82 125L0 131Z" fill="#009b7f"></path><path d="M0 511L82 523L164 481L245 439L327 493L409 535L491 445L573 475L655 523L736 499L818 439L900 529L900 347L818 251L736 311L655 263L573 353L491 281L409 317L327 341L245 311L164 383L82 299L0 401Z" fill="#00b388"></path><path d="M0 601L82 601L164 601L245 601L327 601L409 601L491 601L573 601L655 601L736 601L818 601L900 601L900 527L818 437L736 497L655 521L573 473L491 443L409 533L327 491L245 437L164 479L82 521L0 509Z" fill="#00cc8e"></path></svg>