<svg id="visual" viewBox="0 0 900 600" width="900" height="600" xmlns="http://www.w3.org/2000/svg" xmlns:xlink="http://www.w3.org/1999/xlink" version="1.1"><rect x="0" y="0" width="900" height="600" fill="#001220"></rect><defs><linearGradient id="grad1_0" x1="33.3%" y1="100%" x2="100%" y2="0%"><stop offset="20%" stop-color="#90b77d" stop-opacity="1"></stop><stop offset="80%" stop-color="#90b77d" stop-opacity="1"></stop></linearGradient></defs><defs><linearGradient id="grad1_1" x1="33.3%" y1="100%" x2="100%" y2="0%"><stop offset="20%" stop-color="#90b77d" stop-opacity="1"></stop><stop offset="80%" stop-color="#001220" stop-opacity="1"></stop></linearGradient></defs><defs><linearGradient id="grad2_0" x1="0%" y1="100%" x2="66.7%" y2="0%"><stop offset="20%" stop-color="#90b77d" stop-opacity="1"></stop><stop offset="80%" stop-color="#90b77d" stop-opacity="1"></stop></linearGradient></defs><defs><linearGradient id="grad2_1" x1="0%" y1="100%" x2="66.7%" y2="0%"><stop offset="20%" stop-color="#001220" stop-opacity="1"></stop><stop offset="80%" stop-color="#90b77d" stop-opacity="1"></stop></linearGradient></defs><g transform="translate(900, 600)"><path d="M-337 0C-329 -41.1 -321 -82.3 -309.5 -128.2C-298 -174.1 -282.8 -224.8 -248.6 -248.6C-214.3 -272.4 -161 -269.3 -116.3 -280.9C-71.7 -292.4 -35.9 -318.7 0 -345L0 0Z" fill="#126264"></path><path d="M-168.5 0C-164.5 -20.6 -160.5 -41.1 -154.7 -64.1C-149 -87.1 -141.4 -112.4 -124.3 -124.3C-107.2 -136.2 -80.5 -134.6 -58.2 -140.4C-35.9 -146.2 -17.9 -159.4 0 -172.5L0 0Z" fill="#90b77d"></path></g><g transform="translate(0, 0)"><path d="M343 0C333.1 44.8 323.1 89.5 303 125.5C282.9 161.5 252.7 188.7 224.9 224.9C197 261.1 171.6 306.3 134.5 324.8C97.5 343.3 48.7 335.2 0 327L0 0Z" fill="#126264"></path><path d="M171.5 0C166.5 22.4 161.6 44.8 151.5 62.8C141.5 80.7 126.3 94.3 112.4 112.4C98.5 130.5 85.8 153.1 67.3 162.4C48.7 171.7 24.4 167.6 0 163.5L0 0Z" fill="#90b77d"></path></g></svg>